<?xml version="1.0" standalone="no"?>
<!DOCTYPE svg PUBLIC "-//W3C//DTD SVG 20010904//EN"
 "http://www.w3.org/TR/2001/REC-SVG-20010904/DTD/svg10.dtd">
<svg version="1.0" xmlns="http://www.w3.org/2000/svg"
 width="1125.000000pt" height="1125.000000pt" viewBox="0 0 1125.000000 1125.000000"
 preserveAspectRatio="xMidYMid meet">
<metadata>
Created by potrace 1.14, written by Peter Selinger 2001-2017
</metadata>
<g transform="translate(0.000000,1125.000000) scale(0.100000,-0.100000)"
fill="#000000" stroke="none">
<path d="M8604 8884 c-4 -10 -15 -37 -24 -59 -10 -22 -44 -103 -76 -180 -32
-77 -61 -142 -64 -145 -3 -3 -6 -12 -8 -20 -4 -16 -122 -304 -147 -355 -7 -16
-42 -97 -75 -180 -34 -82 -69 -166 -78 -185 -9 -19 -17 -37 -17 -40 -2 -6 -23
-56 -40 -95 -16 -37 -27 -69 -25 -74 1 -2 -3 -7 -8 -10 -6 -3 -12 -17 -13 -31
l-4 -24 103 0 c56 0 102 -2 102 -4 0 -8 -52 -117 -59 -122 -3 -3 -7 -9 -8 -15
-1 -5 -30 -68 -64 -140 -35 -71 -64 -132 -64 -135 -1 -3 -29 -62 -63 -133 -34
-70 -62 -131 -62 -135 -1 -4 -8 -18 -17 -31 -9 -15 -11 -26 -5 -30 6 -3 130
-6 276 -6 175 0 266 -3 267 -10 0 -5 1 -81 1 -168 l1 -157 181 2 181 3 0 165
0 165 265 1 c146 1 271 2 278 3 10 1 9 8 -3 31 -8 16 -14 32 -13 34 2 2 -5 12
-14 22 -9 11 -18 24 -19 29 -3 15 -48 112 -133 288 -42 87 -86 179 -97 205
-12 26 -32 68 -45 93 l-23 46 97 -1 c114 -2 124 0 113 22 -11 22 -24 53 -57
132 -14 36 -33 81 -41 100 -53 121 -123 289 -123 294 0 2 -13 34 -30 69 -16
36 -30 68 -30 72 0 3 -9 27 -21 53 -19 42 -28 64 -60 137 -4 11 -20 49 -34 85
-15 36 -35 82 -46 103 -10 20 -17 37 -14 37 3 0 -23 62 -65 155 -5 11 -21 49
-36 85 -31 77 -32 78 -40 54z"/>
<path d="M3678 8052 c-63 -160 -101 -247 -110 -253 -5 -3 -9 -9 -9 -13 2 -20
-13 -67 -25 -77 -8 -6 -14 -17 -14 -23 0 -7 -29 -81 -65 -166 -72 -170 -71
-167 -110 -260 -15 -36 -36 -84 -46 -107 -11 -23 -19 -44 -19 -47 0 -3 -11
-29 -24 -58 -13 -29 -36 -82 -50 -118 -15 -36 -33 -78 -41 -95 -7 -16 -32 -73
-54 -125 -22 -52 -48 -113 -57 -135 -10 -22 -19 -44 -20 -50 -3 -12 -58 -143
-87 -205 -12 -25 -21 -47 -22 -50 0 -3 -6 -20 -14 -38 -8 -18 -11 -35 -8 -38
3 -4 71 -6 151 -6 81 0 146 -2 146 -5 0 -3 -7 -17 -15 -31 -8 -15 -42 -85 -76
-157 -34 -71 -83 -176 -110 -233 -27 -57 -49 -107 -49 -111 0 -5 -7 -14 -15
-21 -8 -6 -14 -15 -13 -18 1 -4 -21 -54 -49 -112 -101 -209 -161 -337 -167
-357 -6 -20 -3 -20 378 -19 334 1 385 -1 388 -14 2 -8 4 -115 3 -237 0 -123 2
-223 5 -224 7 -1 408 -1 445 0 l30 1 -1 234 c0 205 2 235 15 238 9 2 184 3
389 2 204 0 372 1 372 3 0 5 -56 125 -130 278 -40 83 -92 191 -115 240 -24 50
-77 162 -120 250 -86 177 -115 244 -112 249 1 1 -4 11 -12 20 -13 15 -13 19
-1 26 8 5 18 6 23 3 8 -5 77 -6 231 -4 48 1 48 1 34 24 -8 12 -25 49 -38 82
-13 33 -26 65 -30 70 -4 6 -11 21 -15 35 -4 14 -16 45 -27 70 -11 25 -26 59
-33 75 -7 17 -22 51 -34 77 -11 26 -21 50 -21 53 0 5 -8 24 -59 137 -11 26
-21 50 -21 54 0 3 -11 29 -24 57 -13 29 -37 86 -54 127 -17 41 -39 93 -48 115
-10 22 -18 42 -19 45 0 3 -11 27 -23 54 -12 27 -22 51 -22 53 0 2 -11 29 -25
59 -14 30 -25 57 -25 59 0 3 -9 24 -19 48 -11 23 -35 80 -54 127 -20 47 -42
99 -51 115 -9 17 -16 37 -16 46 0 8 -4 19 -8 25 -5 5 -20 36 -32 69 -13 33
-30 71 -37 85 -7 14 -13 28 -13 33 0 4 -11 30 -25 59 -14 28 -25 58 -25 65 0
7 -6 13 -12 13 -7 0 -25 -31 -40 -68z"/>
<path d="M6247 7644 c-1 -1 -29 -4 -62 -7 -33 -4 -71 -9 -85 -12 -14 -3 -47
-9 -75 -15 -84 -16 -89 -17 -186 -50 -117 -39 -205 -82 -287 -138 -83 -58
-125 -104 -163 -179 -35 -70 -45 -165 -22 -220 7 -18 11 -33 9 -33 -14 0 49
-113 99 -179 20 -26 172 -176 211 -208 98 -81 240 -210 305 -278 125 -131 159
-169 159 -175 0 -4 14 -22 31 -41 44 -49 111 -154 147 -229 75 -159 83 -293
29 -475 -2 -5 -11 -27 -20 -49 -9 -21 -17 -42 -17 -47 0 -5 -4 -9 -8 -9 -5 0
-15 -12 -23 -27 -50 -98 -219 -282 -376 -410 -12 -10 -30 -25 -40 -33 -10 -8
-34 -26 -53 -40 -19 -13 -41 -30 -48 -37 -14 -14 -310 -213 -316 -213 -2 0
-58 -33 -123 -73 -66 -40 -153 -92 -194 -116 -40 -23 -81 -46 -89 -51 -43 -27
-319 -180 -326 -180 -4 0 -15 -6 -23 -14 -9 -7 -50 -31 -91 -53 -41 -22 -95
-52 -120 -66 -25 -13 -123 -68 -218 -121 -95 -53 -177 -96 -182 -96 -6 0 -10
-4 -10 -10 0 -5 -4 -10 -10 -10 -13 0 -532 -297 -765 -438 -104 -63 -203 -122
-220 -131 -16 -9 -32 -18 -35 -21 -3 -3 -68 -46 -145 -95 -184 -117 -465 -307
-493 -333 -8 -6 -23 -17 -34 -23 -11 -6 -52 -35 -91 -65 -40 -30 -76 -57 -82
-62 -29 -21 -152 -118 -161 -127 -7 -5 -27 -21 -44 -35 -18 -14 -47 -37 -64
-52 l-31 -27 2417 -1 c1922 0 2419 3 2428 13 6 6 25 35 43 62 17 28 37 56 44
63 7 7 13 17 13 22 0 5 6 15 13 22 16 18 77 107 77 114 0 3 5 10 11 17 24 28
119 168 119 176 0 5 4 11 9 13 4 1 122 174 261 383 138 209 265 399 281 423
16 23 29 45 29 47 0 2 11 21 25 42 14 21 30 45 35 53 6 8 39 62 75 120 35 58
68 110 73 116 5 5 22 32 37 60 15 27 40 68 56 92 16 24 29 45 29 47 0 2 22 39
48 82 26 43 51 85 55 93 4 8 18 33 32 55 14 22 28 47 32 55 3 8 12 22 18 30
33 40 171 330 181 380 0 3 6 18 12 33 7 16 12 34 12 42 0 8 5 17 10 20 8 5 8
11 0 20 -6 8 -7 14 -1 17 24 9 38 305 17 388 -3 14 -8 38 -12 54 -3 16 -13 44
-20 62 -8 19 -14 36 -14 39 1 8 -49 95 -87 152 -33 50 -144 169 -209 224 -37
31 -213 155 -269 189 -22 13 -41 28 -43 32 -2 4 -8 8 -12 8 -5 0 -31 13 -57
28 -53 32 -163 90 -328 177 -60 32 -132 70 -160 85 -27 15 -86 47 -130 70 -44
23 -120 64 -170 90 -49 26 -107 57 -127 69 -76 42 -104 58 -163 91 -33 18 -91
51 -128 74 -37 22 -76 46 -85 51 -143 86 -175 138 -143 233 40 116 190 255
436 404 57 35 104 65 105 68 0 4 -528 8 -533 4z"/>
</g>
</svg>
