<?xml version="1.0" standalone="no"?>
<!DOCTYPE svg PUBLIC "-//W3C//DTD SVG 20010904//EN"
 "http://www.w3.org/TR/2001/REC-SVG-20010904/DTD/svg10.dtd">
<svg version="1.0" xmlns="http://www.w3.org/2000/svg"
 width="750.000000pt" height="750.000000pt" viewBox="0 0 750.000000 750.000000"
 preserveAspectRatio="xMidYMid meet">
<metadata>
Created by potrace 1.14, written by Peter Selinger 2001-2017
</metadata>
<g transform="translate(0.000000,750.000000) scale(0.100000,-0.100000)"
fill="#000000" stroke="none">
<path d="M3548 7495 c-2 -2 -48 -6 -102 -9 -55 -4 -102 -9 -105 -10 -3 -2 -38
-7 -77 -10 -39 -4 -82 -9 -95 -11 -13 -3 -51 -10 -84 -15 -199 -36 -486 -115
-670 -187 -808 -314 -1475 -882 -1907 -1623 -204 -350 -350 -732 -428 -1120
-12 -58 -24 -114 -26 -124 -2 -11 -8 -56 -14 -100 -6 -45 -12 -94 -15 -111
-13 -93 -19 -234 -19 -420 0 -191 10 -409 18 -424 2 -3 7 -37 11 -76 3 -38 11
-92 16 -120 5 -27 12 -66 15 -85 12 -75 66 -291 105 -415 183 -588 488 -1092
929 -1535 58 -58 139 -135 180 -170 41 -36 77 -67 80 -70 50 -50 326 -245 464
-328 276 -165 570 -293 891 -387 50 -14 98 -28 108 -30 10 -2 26 -6 35 -9 9
-3 28 -7 42 -10 14 -3 61 -12 105 -21 108 -22 92 -20 300 -50 95 -13 245 -20
455 -20 251 0 351 7 537 35 188 29 186 28 338 66 77 20 147 37 155 39 30 7
256 84 320 108 328 127 671 323 955 546 198 156 474 427 596 586 13 17 26 32
29 35 12 10 168 228 205 285 176 275 320 574 417 870 35 109 106 371 113 420
1 11 10 61 18 110 9 50 19 113 22 140 4 28 8 61 11 75 19 107 26 593 11 740
-4 41 -10 98 -13 125 -2 28 -6 61 -9 75 -2 14 -6 45 -10 70 -3 25 -10 65 -15
90 -6 25 -12 56 -14 70 -2 14 -10 48 -16 75 -6 28 -14 61 -16 75 -16 84 -111
377 -167 515 -62 154 -163 360 -224 457 -13 21 -23 40 -23 43 0 3 -8 18 -19
33 -10 15 -48 73 -84 128 -326 497 -783 920 -1308 1212 -148 82 -452 222 -482
222 -7 0 -17 4 -22 9 -31 30 -522 163 -685 186 -24 4 -47 8 -50 10 -3 1 -36 6
-75 9 -38 4 -77 9 -85 11 -49 12 -610 30 -622 20z"/>
</g>
</svg>
